<svg width="143.058136" height="34.117218" viewBox="0 0 143.058 34.1172" fill="none" xmlns="http://www.w3.org/2000/svg" xmlns:xlink="http://www.w3.org/1999/xlink">
	<desc>
			Created with Pixso.
	</desc>
	<defs/>
	<path id="SkillSwap" d="M18.91 16.29Q18.82 15.66 18.64 15.16Q18.37 14.32 17.89 13.62Q17.53 13.09 17.05 12.64Q15.94 11.6 14.35 10.98Q13.24 10.54 12.09 10.36Q11.64 10.29 11.18 10.26Q9.56 10.16 7.95 9.94Q7.41 9.87 6.86 9.72Q6.33 9.58 5.87 9.33Q5.56 9.15 5.32 8.91Q5.21 8.8 5.12 8.68Q5.1 8.66 5.08 8.63Q4.82 8.25 4.78 7.7Q4.7 6.91 4.98 6.29Q5.2 5.77 5.57 5.38Q5.65 5.3 5.73 5.22Q6.21 4.79 6.9 4.54Q7.59 4.28 8.38 4.18Q9.64 4.03 11.07 4.28Q12.52 4.54 13.49 5.26Q13.85 5.54 14.28 5.9Q14.71 6.26 15.18 6.53Q15.55 6.75 15.94 6.82Q16.06 6.85 16.17 6.86Q16.69 6.91 17.27 6.55Q17.86 6.18 18.01 5.68Q18.03 5.6 18.04 5.51Q18.13 4.9 17.88 4.23Q17.63 3.56 17.16 2.97Q16.69 2.38 16.23 2.02Q15.57 1.48 14.7 1.08Q13.82 0.68 12.79 0.43Q11.76 0.18 10.66 0.07Q9.56 -0.03 8.48 0Q6.54 0.07 4.94 0.52Q3.65 0.88 2.66 1.63Q2.41 1.81 2.19 2.02Q1.74 2.45 1.38 2.95Q0.8 3.78 0.46 4.78Q0.08 5.92 0.05 7.07Q0.03 7.53 0.08 7.99Q0.15 8.68 0.35 9.34Q0.61 10.21 1.11 11.02Q1.35 11.41 1.65 11.75Q2.43 12.61 3.63 13.11Q4.46 13.47 5.32 13.65Q6.18 13.83 7.08 13.93Q7.98 14.04 8.86 14.11Q9.75 14.18 10.61 14.37Q11.36 14.54 12 14.8Q12.63 15.05 13.08 15.43Q13.2 15.53 13.31 15.65Q13.6 15.96 13.77 16.37Q14.03 16.92 14.03 17.78Q14.03 18.38 13.83 18.9Q13.68 19.29 13.41 19.64Q13.33 19.75 13.24 19.85Q12.67 20.51 11.81 20.92Q10.83 21.39 9.62 21.46Q9.32 21.48 9.02 21.46Q8.12 21.43 7.23 21.13Q6.4 20.74 5.66 20.11Q4.92 19.48 4.53 18.72Q4.31 18.25 3.95 17.99Q3.74 17.83 3.52 17.73Q3.34 17.64 3.16 17.59Q2.92 17.52 2.67 17.49Q2.48 17.46 2.28 17.46Q1.83 17.46 1.47 17.53Q0.91 17.67 0.58 18.03Q0.57 18.05 0.56 18.06Q0.46 18.18 0.37 18.32Q0.2 18.6 0.1 18.92Q0.08 18.99 0.06 19.07Q-0.04 19.48 0.01 19.93Q0.06 20.45 0.28 20.84Q0.79 21.87 1.5 22.72Q1.59 22.83 1.68 22.93Q2.51 23.87 3.67 24.52Q5.5 25.53 7.86 25.7Q9.57 25.84 11.2 25.55Q11.82 25.44 12.43 25.27Q14.26 24.76 15.76 23.75Q16.07 23.54 16.37 23.31Q17.45 22.47 18.08 21.36Q18.46 20.7 18.68 19.95Q18.82 19.48 18.91 18.85Q18.94 18.59 18.97 18.34Q19 17.96 19 17.57Q19 16.92 18.91 16.29ZM81.15 16.29Q81.06 15.66 80.89 15.16Q80.62 14.32 80.14 13.62Q79.78 13.09 79.3 12.64Q78.18 11.6 76.6 10.98Q75.49 10.54 74.33 10.36Q73.88 10.29 73.42 10.26Q71.81 10.16 70.19 9.94Q69.65 9.87 69.11 9.72Q68.57 9.58 68.12 9.33Q67.81 9.15 67.57 8.91Q67.46 8.8 67.36 8.68Q67.34 8.66 67.33 8.63Q67.06 8.25 67.03 7.7Q66.95 6.91 67.22 6.29Q67.44 5.77 67.81 5.38Q67.89 5.3 67.98 5.22Q68.46 4.79 69.14 4.54Q69.83 4.28 70.62 4.18Q71.89 4.03 73.32 4.28Q74.76 4.54 75.74 5.26Q76.1 5.54 76.53 5.9Q76.96 6.26 77.42 6.53Q77.79 6.75 78.19 6.82Q78.3 6.85 78.42 6.86Q78.94 6.91 79.52 6.55Q80.11 6.18 80.25 5.68Q80.28 5.6 80.29 5.51Q80.38 4.9 80.12 4.23Q79.88 3.56 79.4 2.97Q78.94 2.38 78.47 2.02Q77.82 1.48 76.94 1.08Q76.06 0.68 75.03 0.43Q74 0.18 72.91 0.07Q71.81 -0.03 70.73 0Q68.78 0.07 67.18 0.52Q65.9 0.88 64.9 1.63Q64.66 1.81 64.43 2.02Q63.98 2.45 63.63 2.95Q63.04 3.78 62.7 4.78Q62.32 5.92 62.29 7.07Q62.28 7.53 62.32 7.99Q62.4 8.68 62.59 9.34Q62.86 10.21 63.35 11.02Q63.59 11.41 63.9 11.75Q64.68 12.61 65.87 13.11Q66.7 13.47 67.56 13.65Q68.42 13.83 69.32 13.93Q70.23 14.04 71.1 14.11Q71.99 14.18 72.85 14.37Q73.61 14.54 74.24 14.8Q74.87 15.05 75.32 15.43Q75.45 15.53 75.56 15.65Q75.84 15.96 76.02 16.37Q76.27 16.92 76.27 17.78Q76.27 18.38 76.07 18.9Q75.92 19.29 75.66 19.64Q75.57 19.75 75.48 19.85Q74.92 20.51 74.06 20.92Q73.07 21.39 71.86 21.46Q71.56 21.48 71.26 21.46Q70.36 21.43 69.47 21.13Q68.64 20.74 67.9 20.11Q67.17 19.48 66.77 18.72Q66.55 18.25 66.19 17.99Q65.99 17.83 65.76 17.73Q65.59 17.64 65.4 17.59Q65.16 17.52 64.92 17.49Q64.72 17.46 64.52 17.46Q64.07 17.46 63.71 17.53Q63.15 17.67 62.83 18.03Q62.82 18.05 62.81 18.06Q62.7 18.18 62.62 18.32Q62.44 18.6 62.34 18.92Q62.32 18.99 62.3 19.07Q62.21 19.48 62.25 19.93Q62.31 20.45 62.53 20.84Q63.03 21.87 63.74 22.72Q63.83 22.83 63.92 22.93Q64.76 23.87 65.91 24.52Q67.75 25.53 70.1 25.7Q71.81 25.84 73.45 25.55Q74.07 25.44 74.67 25.27Q76.51 24.76 78 23.75Q78.31 23.54 78.61 23.31Q79.69 22.47 80.33 21.36Q80.7 20.7 80.92 19.95Q81.06 19.48 81.15 18.85Q81.19 18.59 81.21 18.34Q81.25 17.96 81.25 17.57Q81.25 16.92 81.15 16.29ZM30.21 18.56Q29.83 18.18 29.04 17.35Q29.83 16.53 30.21 16.15L30.75 15.61Q30.92 15.45 30.99 15.41Q31.06 15.38 31.23 15.22Q31.42 15.05 31.81 14.67Q32.21 14.29 33.01 13.47Q33.56 12.85 33.94 12.14Q34 12.02 34.06 11.9Q34.2 11.62 34.23 11.33Q34.31 10.73 33.97 10.08Q33.57 9.37 33.02 9.23Q32.8 9.18 32.55 9.22Q31.71 9.36 30.81 10.01Q29.97 10.62 29.22 11.43Q28.46 12.24 28 12.71L27.6 13.11Q27.46 13.25 27.31 13.35Q27.07 13.64 26.78 13.9Q26.49 14.15 26.2 14.44L26.2 11.79Q26.2 10.66 26.23 9.4L26.23 7.06Q26.23 5.98 26.2 4.79L26.2 4.64Q26.2 4.28 26.16 3.55Q26.12 2.81 26.09 2.45Q26.09 1.8 25.8 1.12Q25.72 0.93 25.61 0.77Q25.41 0.49 25.11 0.29Q24.61 0 24.11 0Q23.89 0 23.66 0.02Q23.43 0.04 23.24 0.07Q23.07 0.14 22.86 0.24Q22.67 0.33 22.49 0.5Q22.28 0.72 22.13 1.08Q22.06 1.26 22 1.46Q21.95 1.66 21.92 1.88Q21.88 2.09 21.88 2.31L21.88 23.5Q21.88 23.66 21.95 23.83Q22.02 24.02 22.07 24.22Q22.13 24.41 22.21 24.59Q22.27 24.82 22.4 24.99Q22.5 25.11 22.64 25.2Q22.93 25.49 23.46 25.6Q24.47 25.77 25.15 25.38Q25.15 25.38 25.16 25.38Q25.55 25.05 25.73 24.7Q25.76 24.62 25.78 24.59L25.83 24.48Q25.83 24.41 25.85 24.38Q25.87 24.34 25.91 24.26Q25.98 24.09 26.02 23.93Q26.05 23.76 26.09 23.58Q26.09 23.22 26.2 22.83Q26.23 22.64 26.23 22.28Q26.2 22.11 26.2 21.71L26.2 20.31Q26.49 20.6 26.78 20.85Q27.07 21.1 27.31 21.35Q27.39 21.42 27.46 21.48Q27.53 21.53 27.6 21.6Q27.67 21.71 28 22.03Q28.46 22.47 29.22 23.28Q29.97 24.09 30.81 24.7Q31.24 25.02 31.69 25.24Q32.14 25.46 32.55 25.49Q32.77 25.51 32.98 25.46Q33.16 25.42 33.32 25.33Q33.68 25.13 33.97 24.62Q34.31 23.97 34.23 23.37Q34.19 23.08 34.06 22.81Q33.72 22.1 33.21 21.53Q33.11 21.41 33.01 21.31Q32.21 20.48 31.81 20.1Q31.42 19.73 31.23 19.55Q31.06 19.37 30.99 19.33Q30.92 19.3 30.75 19.12Q30.59 18.94 30.21 18.56ZM49.94 23.1Q49.96 22.93 50 22.75Q50.03 22.57 50.03 22.21Q50.03 22.06 50.02 21.94Q50 21.82 50 21.67L50 14.11Q50 12.99 50.02 11.86Q50.03 10.73 50.03 9.5Q50.07 8.25 50.07 7.18Q50.07 6.12 50 4.97L50 4.83Q50 4.47 49.98 3.75Q49.96 3.03 49.92 2.67Q49.92 2.05 49.56 1.33Q49.49 1.16 49.38 1.01Q49.17 0.73 48.85 0.54Q48.2 0.25 47.69 0.25Q47.41 0.25 47.19 0.27Q46.97 0.29 46.72 0.36Q46.32 0.4 45.89 0.72Q45.78 0.81 45.7 0.91Q45.56 1.08 45.5 1.3Q45.42 1.52 45.37 1.7Q45.31 1.88 45.28 2.12Q45.24 2.31 45.23 2.51Q45.21 2.7 45.21 2.96L45.21 23.11Q45.21 23.4 45.31 23.76Q45.38 24.12 45.53 24.48Q45.55 24.52 45.57 24.57Q45.72 24.87 46.03 25.1Q46.39 25.38 47.01 25.46Q47.54 25.57 48.03 25.5Q48.45 25.43 48.85 25.24Q49.29 24.99 49.47 24.62Q49.48 24.6 49.49 24.59L49.6 24.38Q49.64 24.34 49.71 24.19L49.92 23.44Q49.92 23.26 49.94 23.1ZM59.22 23.1Q59.25 22.93 59.29 22.75Q59.32 22.57 59.32 22.21Q59.32 22.06 59.3 21.94Q59.29 21.82 59.29 21.67L59.29 14.11Q59.29 12.99 59.3 11.86Q59.32 10.73 59.32 9.5Q59.36 8.25 59.36 7.18Q59.36 6.12 59.29 4.97L59.29 4.83Q59.29 4.47 59.27 3.75Q59.25 3.03 59.21 2.67Q59.21 2.05 58.85 1.33Q58.77 1.16 58.67 1.01Q58.46 0.73 58.13 0.54Q57.48 0.25 56.97 0.25Q56.69 0.25 56.47 0.27Q56.26 0.29 56.01 0.36Q55.61 0.4 55.18 0.72Q55.07 0.81 54.98 0.91Q54.85 1.08 54.79 1.3Q54.71 1.52 54.65 1.7Q54.6 1.88 54.57 2.12Q54.53 2.31 54.51 2.51Q54.5 2.7 54.5 2.96L54.5 23.11Q54.5 23.4 54.6 23.76Q54.67 24.12 54.82 24.48Q54.84 24.52 54.86 24.57Q55 24.87 55.32 25.1Q55.68 25.38 56.3 25.46Q56.82 25.57 57.32 25.5Q57.74 25.43 58.13 25.24Q58.58 24.99 58.76 24.62Q58.77 24.6 58.78 24.59L58.89 24.38Q58.93 24.34 59 24.19L59.21 23.44Q59.21 23.26 59.22 23.1ZM38.73 4.64Q39.39 4.95 40.31 4.71Q41.03 4.5 41.42 4.06Q41.76 3.67 41.87 3.22Q41.89 3.14 41.91 3.06Q41.92 2.98 41.93 2.89Q41.96 2.43 41.73 1.95Q41.46 1.37 40.85 0.94Q40.2 0.47 39.55 0.43Q39.09 0.41 38.7 0.56Q38.55 0.62 38.4 0.71Q38.26 0.79 38.14 0.9Q37.83 1.17 37.64 1.59Q37.4 2.16 37.54 2.91Q37.67 3.71 38.13 4.2Q38.27 4.36 38.45 4.49Q38.58 4.58 38.73 4.64ZM41.7 14.26Q41.68 12.99 41.68 11.99Q41.68 11.55 41.66 11.03Q41.64 10.52 41.59 10.03Q41.54 9.54 41.46 9.14Q41.39 8.75 41.25 8.53Q41.03 8.21 40.55 8.04Q40.37 7.97 40.2 7.93Q39.87 7.85 39.53 7.85Q39.1 7.85 38.69 7.97Q38.61 7.99 38.54 8.01Q38.08 8.17 37.83 8.46Q37.5 8.92 37.35 9.63Q37.21 10.33 37.18 11.09Q37.14 11.84 37.16 12.56Q37.18 13.28 37.18 13.79L37.18 15.72Q37.18 16.77 37.2 17.89Q37.21 19.01 37.23 20.09Q37.25 21.17 37.25 21.99Q37.32 23.62 37.8 24.52Q38 24.88 38.3 25.11Q38.74 25.44 39.41 25.49Q40.17 25.53 40.62 25.18Q40.81 25.04 40.96 24.86Q41.15 24.61 41.27 24.31Q41.49 23.76 41.56 23.14Q41.64 22.5 41.68 21.96Q41.71 20.84 41.71 19.53L41.71 16.87Q41.71 15.52 41.7 14.26ZM138.69 9.59Q138.52 9.51 138.34 9.43Q137.91 9.25 137.23 9.04Q136.54 8.82 135.69 8.63Q134.84 8.42 133.93 8.28Q133.02 8.13 132.14 8.1Q130.89 8.06 129.88 8.39Q129.23 8.6 128.87 9.04Q128.66 9.29 128.55 9.61Q128.37 10.04 128.33 10.48Q128.3 10.73 128.28 10.96Q128.26 11.2 128.26 11.41L128.26 31.47Q128.26 31.64 128.28 31.8Q128.3 31.97 128.33 32.15Q128.44 32.62 128.59 32.98Q128.73 33.34 129.05 33.66Q129.1 33.7 129.16 33.74Q129.49 33.99 129.98 34.02Q130.47 34.15 130.95 34.1Q131.37 34.05 131.78 33.84Q131.97 33.66 132.11 33.47Q132.25 33.3 132.4 33.09Q132.54 32.76 132.63 32.47Q132.73 32.18 132.8 31.83Q132.8 31.64 132.85 31.46Q132.9 31.28 132.9 31.06L132.9 24.48Q134.63 24.38 136.23 24.07Q136.95 23.93 137.65 23.73Q138.51 23.48 139.34 23.15Q141.05 22.4 141.94 21.1Q142.09 20.89 142.21 20.67Q142.68 19.79 142.89 18.85Q143.07 18.05 143.05 17.21Q143.05 16.87 143.03 16.54Q142.96 15.65 142.71 14.78Q142.42 13.77 141.94 12.88Q141.84 12.7 141.73 12.53Q141.18 11.6 140.44 10.86Q140.34 10.76 140.25 10.67Q139.53 10 138.69 9.59ZM105.34 10.89Q105.44 9.9 105.11 9.43Q104.75 8.89 104.26 8.71Q103.83 8.55 103.42 8.58Q103.36 8.58 103.31 8.59Q103.3 8.59 103.3 8.59Q102.84 8.65 102.41 8.92Q102.03 9.15 101.8 9.47Q101.76 9.52 101.73 9.58Q101.47 9.97 101.27 10.55Q101.08 11.12 100.89 11.75Q100.72 12.39 100.55 13Q100.39 13.61 100.25 14.08Q100.03 14.8 99.85 15.32Q99.67 15.84 99.53 16.27Q99.39 16.7 99.26 17.1Q99.14 17.49 98.99 17.92Q98.85 17.49 98.71 17.1Q98.59 16.7 98.45 16.27Q98.31 15.84 98.12 15.32Q97.95 14.8 97.73 14.08Q97.52 13.39 97.18 12.55Q96.83 11.7 96.36 11.05Q95.94 10.47 95.37 10.19Q95.31 10.16 95.24 10.14Q95.12 10.09 95 10.06Q94.45 9.96 93.81 10.4Q93.45 10.62 93.14 11.07Q92.83 11.52 92.6 12.03Q92.37 12.53 92.17 13.09Q91.97 13.64 91.82 14.08Q91.43 15.45 91.16 16.22Q90.89 16.99 90.64 17.82Q90.35 16.99 90.07 16.22Q89.81 15.45 89.41 14.08Q89.23 13.47 89.05 12.82Q88.88 12.17 88.69 11.54Q88.52 10.91 88.28 10.37Q88.04 9.83 87.76 9.47Q87.22 8.75 86.55 8.61L86.55 8.61Q86.05 8.49 85.6 8.61Q85.46 8.64 85.33 8.7Q85.21 8.75 85.1 8.81Q84.7 9.05 84.43 9.5Q84.27 9.78 84.2 10.08Q84.12 10.41 84.16 10.76Q84.26 11.81 84.59 13.06Q84.91 14.29 85.29 15.53Q85.67 16.77 86.07 17.97Q86.46 19.16 86.75 20.12Q86.96 20.88 87.29 21.89Q87.61 22.9 88.06 23.84Q88.52 24.77 89.14 25.44Q89.52 25.84 89.99 26.01Q90.3 26.12 90.64 26.13Q90.89 26.17 91.12 26.1Q91.44 26.01 91.7 25.72Q92.15 25.24 92.46 24.55Q92.76 23.87 92.97 23.09Q93.19 22.32 93.33 21.78Q93.84 20.24 94.16 19.01Q94.49 17.78 94.81 16.74Q95.1 17.78 95.46 19.1Q95.82 20.41 96.29 21.99Q96.44 22.54 96.65 23.26Q96.87 23.98 97.17 24.63Q97.47 25.27 97.92 25.7Q98.18 25.95 98.49 26.05Q98.72 26.13 98.99 26.13Q99.52 26.13 99.89 25.89Q99.9 25.88 99.91 25.88Q99.98 25.83 100.04 25.78Q100.34 25.56 100.55 25.24Q100.82 24.84 101.02 24.34Q101.22 23.83 101.44 23.33Q102.09 21.6 102.55 20.17Q103.02 18.72 103.64 17.06Q103.89 16.34 104.29 15.24Q104.47 14.74 104.63 14.23Q104.81 13.62 104.96 13.01Q105.25 11.88 105.34 10.89ZM112.93 10Q112.34 10.19 111.77 10.48Q111.65 10.54 111.52 10.61Q110.35 11.24 109.43 12.35Q108.42 13.57 107.92 15.52Q107.67 16.45 107.59 17.4Q107.55 17.95 107.56 18.5Q107.6 20.02 108.11 21.33Q108.41 22.07 108.85 22.7Q109.19 23.2 109.63 23.64Q109.67 23.68 109.72 23.73Q110.69 24.64 112.17 25.02Q113.35 25.34 114.4 25.42Q115.44 25.49 116.6 25.34Q117.97 25.17 118.93 24.58Q119.91 23.98 120.74 22.9Q120.99 23.29 121.29 23.74Q121.4 23.9 121.52 24.05Q121.74 24.32 121.99 24.57Q122.32 24.88 122.7 25.07Q122.78 25.11 122.87 25.15Q123.07 25.23 123.27 25.26Q123.58 25.3 123.9 25.24Q124.51 25.12 124.86 24.75Q125.04 24.55 125.15 24.28Q125.29 23.93 125.32 23.57Q125.37 23.13 125.27 22.68Q125.05 21.82 124.71 21.03Q124.37 20.24 124 19.45Q123.62 18.65 123.29 17.85Q122.97 17.06 122.83 16.13Q122.61 14.76 122.1 13.64Q121.6 12.53 120.66 11.6Q119.72 10.69 118.64 10.21Q118.18 10 117.69 9.86Q117.06 9.67 116.39 9.6Q116.15 9.57 115.91 9.56Q114.98 9.52 114.04 9.71Q113.47 9.82 112.93 10ZM138.17 15.5Q138.55 16.2 138.41 17.21Q138.33 17.93 137.95 18.43Q137.85 18.55 137.74 18.65Q137.19 19.19 136.39 19.52Q135.6 19.84 134.69 19.98Q133.77 20.12 132.94 20.16L132.94 17.75Q132.97 16.53 132.95 15.46Q132.94 14.4 132.94 13.25L133.45 13.25Q133.69 13.25 133.81 13.28Q134.67 13.39 135.55 13.64Q136.43 13.9 137.11 14.35Q137.53 14.62 137.83 14.98Q138.03 15.22 138.17 15.5ZM112.5 14.86Q112.58 14.77 112.67 14.69Q113.18 14.18 113.95 13.92Q114.55 13.71 115.16 13.67Q115.34 13.66 115.51 13.66Q116.01 13.67 116.47 13.8Q116.75 13.88 117.01 14Q117.26 14.12 117.48 14.29Q117.87 14.58 118.14 15.02Q118.36 15.37 118.5 15.75Q118.74 16.38 118.76 17.08Q118.79 17.98 118.53 18.79Q118.46 19 118.38 19.21Q118.12 19.82 117.72 20.3Q117.46 20.6 117.15 20.85Q116.82 21.11 116.45 21.26Q115.9 21.46 115.26 21.42Q114.8 21.39 114.36 21.29Q113.9 21.18 113.46 21.01Q112.6 20.67 112.24 20.16Q111.84 19.59 111.66 18.83Q111.52 18.25 111.52 17.67Q111.52 17.49 111.53 17.32Q111.58 16.76 111.75 16.23Q111.8 16.05 111.88 15.88Q112.12 15.31 112.5 14.86Z" fill="#513DFF" fill-opacity="1.000000" fill-rule="evenodd"/>
</svg>
