<svg width="119.215134" height="28.430908" viewBox="0 0 119.215 28.4309" fill="none" xmlns="http://www.w3.org/2000/svg" xmlns:xlink="http://www.w3.org/1999/xlink">
	<desc>
			Created with Pixso.
	</desc>
	<defs/>
	<path id="SkillSwap" d="M15.75 13.57Q15.68 13.05 15.53 12.63Q15.31 11.93 14.91 11.35Q14.61 10.91 14.21 10.53Q13.28 9.66 11.96 9.15Q11.03 8.78 10.07 8.63Q9.7 8.57 9.32 8.55Q7.97 8.46 6.62 8.28Q6.17 8.22 5.72 8.1Q5.27 7.98 4.89 7.77Q4.64 7.63 4.43 7.43Q4.34 7.33 4.26 7.23Q4.25 7.21 4.24 7.19Q4.01 6.87 3.98 6.42Q3.92 5.76 4.15 5.24Q4.33 4.8 4.64 4.48Q4.7 4.42 4.78 4.35Q5.18 3.99 5.75 3.78Q6.32 3.57 6.98 3.48Q8.03 3.36 9.23 3.57Q10.43 3.78 11.24 4.38Q11.54 4.62 11.9 4.92Q12.26 5.22 12.65 5.44Q12.96 5.62 13.29 5.69Q13.38 5.71 13.48 5.72Q13.91 5.76 14.39 5.46Q14.88 5.15 15.01 4.73Q15.03 4.67 15.04 4.59Q15.11 4.08 14.9 3.53Q14.69 2.97 14.3 2.48Q13.91 1.98 13.52 1.68Q12.98 1.23 12.25 0.9Q11.51 0.57 10.66 0.36Q9.8 0.15 8.88 0.06Q7.97 -0.03 7.07 0Q5.45 0.06 4.12 0.43Q3.04 0.74 2.21 1.36Q2.01 1.51 1.82 1.68Q1.45 2.04 1.15 2.46Q0.66 3.15 0.38 3.98Q0.06 4.93 0.04 5.89Q0.03 6.27 0.07 6.66Q0.13 7.24 0.29 7.78Q0.51 8.51 0.92 9.18Q1.12 9.51 1.38 9.79Q2.03 10.51 3.02 10.92Q3.71 11.22 4.43 11.38Q5.15 11.52 5.9 11.61Q6.65 11.7 7.38 11.76Q8.12 11.82 8.84 11.97Q9.47 12.12 10 12.33Q10.52 12.54 10.9 12.86Q11 12.94 11.09 13.04Q11.33 13.3 11.48 13.64Q11.69 14.1 11.69 14.82Q11.69 15.32 11.52 15.75Q11.4 16.08 11.18 16.36Q11.11 16.46 11.03 16.54Q10.56 17.09 9.84 17.43Q9.02 17.82 8.01 17.88Q7.76 17.9 7.52 17.89Q6.76 17.86 6.02 17.61Q5.33 17.28 4.72 16.76Q4.1 16.23 3.77 15.6Q3.59 15.21 3.29 14.99Q3.12 14.86 2.93 14.77Q2.79 14.7 2.63 14.66Q2.43 14.6 2.23 14.57Q2.06 14.55 1.9 14.55Q1.52 14.55 1.22 14.61Q0.75 14.73 0.48 15.03Q0.48 15.04 0.47 15.05Q0.38 15.15 0.31 15.27Q0.16 15.5 0.08 15.76Q0.06 15.83 0.05 15.89Q-0.03 16.23 0.01 16.61Q0.05 17.04 0.23 17.37Q0.66 18.22 1.25 18.93Q1.32 19.02 1.4 19.11Q2.09 19.89 3.05 20.43Q4.58 21.27 6.55 21.42Q7.97 21.53 9.34 21.29Q9.85 21.2 10.36 21.06Q11.88 20.63 13.13 19.79Q13.39 19.62 13.64 19.43Q14.54 18.72 15.07 17.8Q15.38 17.25 15.56 16.62Q15.68 16.23 15.75 15.71Q15.79 15.49 15.81 15.28Q15.83 14.96 15.83 14.64Q15.83 14.1 15.75 13.57ZM67.62 13.57Q67.55 13.05 67.4 12.63Q67.18 11.93 66.78 11.35Q66.48 10.91 66.08 10.53Q65.15 9.66 63.83 9.15Q62.9 8.78 61.94 8.63Q61.57 8.57 61.19 8.55Q59.84 8.46 58.49 8.28Q58.04 8.22 57.59 8.1Q57.14 7.98 56.76 7.77Q56.51 7.63 56.3 7.43Q56.21 7.33 56.13 7.23Q56.12 7.21 56.11 7.19Q55.88 6.87 55.85 6.42Q55.79 5.76 56.02 5.24Q56.2 4.8 56.51 4.48Q56.57 4.42 56.65 4.35Q57.05 3.99 57.62 3.78Q58.19 3.57 58.85 3.48Q59.9 3.36 61.1 3.57Q62.3 3.78 63.11 4.38Q63.41 4.62 63.77 4.92Q64.13 5.22 64.52 5.44Q64.83 5.62 65.16 5.69Q65.25 5.71 65.35 5.72Q65.78 5.76 66.26 5.46Q66.75 5.15 66.88 4.73Q66.9 4.67 66.91 4.59Q66.98 4.08 66.77 3.53Q66.56 2.97 66.17 2.48Q65.78 1.98 65.39 1.68Q64.85 1.23 64.12 0.9Q63.38 0.57 62.53 0.36Q61.67 0.15 60.75 0.06Q59.84 -0.03 58.94 0Q57.32 0.06 55.99 0.43Q54.91 0.74 54.08 1.36Q53.88 1.51 53.69 1.68Q53.32 2.04 53.02 2.46Q52.53 3.15 52.25 3.98Q51.93 4.93 51.91 5.89Q51.9 6.27 51.94 6.66Q52 7.24 52.16 7.78Q52.38 8.51 52.79 9.18Q52.99 9.51 53.25 9.79Q53.9 10.51 54.89 10.92Q55.58 11.22 56.3 11.38Q57.02 11.52 57.77 11.61Q58.52 11.7 59.25 11.76Q59.99 11.82 60.71 11.97Q61.34 12.12 61.87 12.33Q62.39 12.54 62.77 12.86Q62.87 12.94 62.96 13.04Q63.2 13.3 63.35 13.64Q63.56 14.1 63.56 14.82Q63.56 15.32 63.39 15.75Q63.27 16.08 63.05 16.36Q62.98 16.46 62.9 16.54Q62.43 17.09 61.71 17.43Q60.89 17.82 59.88 17.88Q59.63 17.9 59.39 17.89Q58.63 17.86 57.89 17.61Q57.2 17.28 56.59 16.76Q55.97 16.23 55.64 15.6Q55.46 15.21 55.16 14.99Q54.99 14.86 54.8 14.77Q54.66 14.7 54.5 14.66Q54.3 14.6 54.1 14.57Q53.93 14.55 53.77 14.55Q53.39 14.55 53.09 14.61Q52.62 14.73 52.35 15.03Q52.35 15.04 52.34 15.05Q52.25 15.15 52.18 15.27Q52.03 15.5 51.95 15.76Q51.93 15.83 51.92 15.89Q51.84 16.23 51.88 16.61Q51.92 17.04 52.1 17.37Q52.53 18.22 53.12 18.93Q53.19 19.02 53.27 19.11Q53.96 19.89 54.92 20.43Q56.45 21.27 58.42 21.42Q59.84 21.53 61.21 21.29Q61.72 21.2 62.23 21.06Q63.75 20.63 65 19.79Q65.26 19.62 65.51 19.43Q66.41 18.72 66.94 17.8Q67.25 17.25 67.43 16.62Q67.55 16.23 67.62 15.71Q67.66 15.49 67.68 15.28Q67.7 14.96 67.7 14.64Q67.7 14.1 67.62 13.57ZM25.18 15.46Q24.86 15.15 24.2 14.46Q24.86 13.77 25.18 13.46L25.62 13.01Q25.76 12.87 25.82 12.84Q25.88 12.81 26.03 12.68Q26.18 12.54 26.51 12.23Q26.84 11.91 27.5 11.22Q27.96 10.71 28.28 10.11Q28.34 10.02 28.38 9.92Q28.5 9.68 28.53 9.44Q28.59 8.94 28.31 8.4Q27.97 7.81 27.52 7.69Q27.33 7.65 27.12 7.69Q26.42 7.8 25.67 8.34Q24.98 8.85 24.35 9.52Q23.72 10.2 23.33 10.59L23 10.92Q22.88 11.04 22.76 11.13Q22.55 11.37 22.31 11.58Q22.07 11.79 21.83 12.03L21.83 9.82Q21.83 8.88 21.86 7.83L21.86 5.88Q21.86 4.98 21.83 3.99L21.83 3.87Q21.83 3.57 21.8 2.95Q21.77 2.34 21.74 2.04Q21.74 1.5 21.5 0.93Q21.43 0.77 21.34 0.64Q21.18 0.41 20.93 0.24Q20.51 0 20.09 0Q19.91 0 19.71 0.02Q19.52 0.03 19.37 0.06Q19.22 0.12 19.05 0.2Q18.89 0.27 18.74 0.42Q18.56 0.6 18.44 0.9Q18.38 1.05 18.33 1.22Q18.29 1.38 18.26 1.56Q18.23 1.74 18.23 1.92L18.23 19.58Q18.23 19.71 18.29 19.86Q18.35 20.01 18.39 20.18Q18.44 20.34 18.5 20.49Q18.55 20.68 18.67 20.82Q18.75 20.92 18.86 21Q19.1 21.24 19.55 21.33Q20.39 21.48 20.96 21.15Q20.96 21.15 20.96 21.15Q21.29 20.88 21.44 20.58Q21.47 20.52 21.48 20.49L21.53 20.4Q21.53 20.34 21.54 20.31Q21.56 20.28 21.59 20.22Q21.65 20.07 21.68 19.94Q21.71 19.8 21.74 19.65Q21.74 19.35 21.83 19.02Q21.86 18.87 21.86 18.57Q21.83 18.42 21.83 18.09L21.83 16.92Q22.07 17.16 22.31 17.38Q22.55 17.58 22.76 17.79Q22.82 17.85 22.88 17.9Q22.94 17.94 23 18Q23.06 18.09 23.33 18.36Q23.72 18.72 24.35 19.4Q24.98 20.07 25.67 20.58Q26.03 20.85 26.41 21.03Q26.78 21.21 27.12 21.24Q27.31 21.26 27.48 21.22Q27.63 21.18 27.77 21.11Q28.07 20.94 28.31 20.52Q28.59 19.97 28.53 19.47Q28.49 19.24 28.38 19.01Q28.1 18.41 27.67 17.94Q27.59 17.84 27.5 17.76Q26.84 17.07 26.51 16.75Q26.18 16.44 26.03 16.29Q25.88 16.14 25.82 16.11Q25.76 16.08 25.62 15.93Q25.49 15.78 25.18 15.46ZM41.61 19.25Q41.63 19.11 41.66 18.96Q41.69 18.81 41.69 18.51Q41.69 18.39 41.68 18.28Q41.66 18.18 41.66 18.06L41.66 11.76Q41.66 10.83 41.68 9.88Q41.69 8.94 41.69 7.92Q41.72 6.87 41.72 5.99Q41.72 5.1 41.66 4.14L41.66 4.02Q41.66 3.72 41.65 3.12Q41.63 2.52 41.6 2.22Q41.6 1.71 41.3 1.11Q41.24 0.96 41.15 0.84Q40.98 0.61 40.7 0.45Q40.16 0.21 39.74 0.21Q39.5 0.21 39.32 0.22Q39.14 0.24 38.93 0.3Q38.6 0.33 38.24 0.6Q38.15 0.67 38.08 0.76Q37.97 0.9 37.91 1.08Q37.85 1.26 37.8 1.42Q37.76 1.56 37.73 1.77Q37.7 1.92 37.69 2.09Q37.67 2.25 37.67 2.46L37.67 19.26Q37.67 19.5 37.76 19.8Q37.82 20.1 37.94 20.4Q37.96 20.44 37.97 20.47Q38.1 20.73 38.36 20.91Q38.66 21.15 39.17 21.21Q39.61 21.31 40.03 21.25Q40.37 21.19 40.7 21.03Q41.08 20.83 41.23 20.52Q41.23 20.5 41.24 20.49L41.33 20.31Q41.36 20.28 41.42 20.16L41.6 19.53Q41.6 19.38 41.61 19.25ZM49.35 19.25Q49.37 19.11 49.4 18.96Q49.43 18.81 49.43 18.51Q49.43 18.39 49.42 18.28Q49.4 18.18 49.4 18.06L49.4 11.76Q49.4 10.83 49.42 9.88Q49.43 8.94 49.43 7.92Q49.46 6.87 49.46 5.99Q49.46 5.1 49.4 4.14L49.4 4.02Q49.4 3.72 49.39 3.12Q49.37 2.52 49.34 2.22Q49.34 1.71 49.04 1.11Q48.98 0.96 48.89 0.84Q48.72 0.61 48.44 0.45Q47.9 0.21 47.48 0.21Q47.24 0.21 47.06 0.22Q46.88 0.24 46.67 0.3Q46.34 0.33 45.98 0.6Q45.89 0.67 45.82 0.76Q45.71 0.9 45.65 1.08Q45.59 1.26 45.54 1.42Q45.5 1.56 45.47 1.77Q45.44 1.92 45.43 2.09Q45.41 2.25 45.41 2.46L45.41 19.26Q45.41 19.5 45.5 19.8Q45.56 20.1 45.68 20.4Q45.7 20.44 45.71 20.47Q45.84 20.73 46.1 20.91Q46.4 21.15 46.91 21.21Q47.35 21.31 47.77 21.25Q48.11 21.19 48.44 21.03Q48.82 20.83 48.97 20.52Q48.97 20.5 48.98 20.49L49.07 20.31Q49.1 20.28 49.16 20.16L49.34 19.53Q49.34 19.38 49.35 19.25ZM32.27 3.87Q32.82 4.13 33.59 3.93Q34.19 3.75 34.52 3.38Q34.8 3.06 34.89 2.69Q34.91 2.62 34.92 2.55Q34.93 2.48 34.94 2.41Q34.97 2.02 34.78 1.62Q34.55 1.14 34.04 0.78Q33.5 0.39 32.96 0.36Q32.58 0.34 32.25 0.47Q32.12 0.52 32 0.59Q31.88 0.66 31.78 0.75Q31.52 0.97 31.37 1.32Q31.16 1.8 31.28 2.43Q31.39 3.09 31.77 3.5Q31.89 3.63 32.04 3.74Q32.15 3.81 32.27 3.87ZM34.75 11.88Q34.73 10.83 34.73 9.99Q34.73 9.63 34.72 9.19Q34.7 8.76 34.66 8.36Q34.61 7.95 34.55 7.62Q34.49 7.29 34.37 7.11Q34.19 6.84 33.79 6.7Q33.64 6.64 33.5 6.61Q33.23 6.54 32.94 6.54Q32.58 6.54 32.24 6.64Q32.18 6.65 32.12 6.67Q31.73 6.81 31.52 7.05Q31.25 7.44 31.13 8.02Q31.01 8.61 30.98 9.24Q30.95 9.87 30.97 10.47Q30.98 11.07 30.98 11.49L30.98 13.1Q30.98 13.98 31 14.91Q31.01 15.84 31.03 16.74Q31.04 17.64 31.04 18.33Q31.1 19.68 31.5 20.43Q31.67 20.73 31.92 20.92Q32.29 21.2 32.84 21.24Q33.47 21.27 33.85 20.99Q34.01 20.86 34.13 20.71Q34.29 20.51 34.39 20.25Q34.58 19.8 34.64 19.28Q34.7 18.75 34.73 18.3Q34.76 17.37 34.76 16.28L34.76 14.06Q34.76 12.93 34.75 11.88ZM115.58 7.99Q115.43 7.92 115.28 7.86Q114.92 7.71 114.35 7.53Q113.78 7.35 113.07 7.19Q112.37 7.02 111.61 6.9Q110.85 6.78 110.12 6.75Q109.07 6.72 108.23 6.99Q107.69 7.16 107.39 7.53Q107.22 7.74 107.12 8.01Q106.97 8.37 106.94 8.73Q106.91 8.94 106.9 9.14Q106.88 9.33 106.88 9.51L106.88 26.22Q106.88 26.37 106.9 26.5Q106.91 26.64 106.94 26.79Q107.03 27.18 107.15 27.48Q107.27 27.78 107.54 28.05Q107.58 28.09 107.63 28.12Q107.91 28.32 108.32 28.35Q108.73 28.46 109.12 28.41Q109.48 28.37 109.82 28.2Q109.97 28.05 110.09 27.89Q110.21 27.75 110.33 27.57Q110.45 27.3 110.52 27.06Q110.6 26.82 110.66 26.52Q110.66 26.37 110.71 26.22Q110.75 26.07 110.75 25.89L110.75 20.4Q112.19 20.31 113.53 20.06Q114.12 19.94 114.71 19.77Q115.42 19.57 116.12 19.29Q117.54 18.67 118.29 17.58Q118.4 17.41 118.51 17.22Q118.9 16.49 119.08 15.7Q119.22 15.04 119.21 14.34Q119.21 14.06 119.19 13.78Q119.13 13.04 118.92 12.31Q118.69 11.48 118.28 10.73Q118.2 10.58 118.11 10.44Q117.65 9.66 117.03 9.05Q116.95 8.97 116.87 8.89Q116.28 8.34 115.58 7.99ZM87.78 9.08Q87.86 8.25 87.59 7.86Q87.29 7.41 86.88 7.26Q86.53 7.12 86.18 7.15Q86.14 7.15 86.09 7.16Q86.09 7.16 86.08 7.16Q85.7 7.21 85.34 7.43Q85.02 7.62 84.83 7.89Q84.8 7.94 84.77 7.98Q84.56 8.31 84.39 8.79Q84.23 9.27 84.08 9.79Q83.93 10.32 83.79 10.83Q83.66 11.34 83.54 11.73Q83.36 12.33 83.21 12.77Q83.06 13.2 82.94 13.56Q82.82 13.92 82.71 14.25Q82.61 14.58 82.49 14.94Q82.37 14.58 82.26 14.25Q82.16 13.92 82.04 13.56Q81.92 13.2 81.77 12.77Q81.62 12.33 81.44 11.73Q81.26 11.16 80.98 10.45Q80.69 9.75 80.3 9.21Q79.95 8.72 79.47 8.49Q79.42 8.47 79.37 8.45Q79.27 8.41 79.17 8.39Q78.71 8.3 78.17 8.67Q77.87 8.85 77.62 9.22Q77.36 9.6 77.16 10.02Q76.97 10.44 76.8 10.91Q76.64 11.37 76.52 11.73Q76.19 12.87 75.96 13.52Q75.74 14.16 75.53 14.85Q75.29 14.16 75.06 13.52Q74.84 12.87 74.51 11.73Q74.36 11.22 74.21 10.68Q74.06 10.14 73.91 9.62Q73.76 9.09 73.57 8.64Q73.37 8.19 73.13 7.89Q72.68 7.29 72.13 7.17L72.12 7.17Q71.7 7.08 71.33 7.17Q71.22 7.2 71.11 7.25Q71.01 7.29 70.91 7.34Q70.58 7.54 70.36 7.92Q70.22 8.15 70.17 8.4Q70.1 8.67 70.13 8.97Q70.22 9.84 70.49 10.88Q70.76 11.91 71.08 12.94Q71.39 13.98 71.72 14.97Q72.05 15.96 72.29 16.77Q72.47 17.4 72.74 18.24Q73.01 19.08 73.38 19.87Q73.76 20.64 74.28 21.2Q74.6 21.53 74.99 21.67Q75.25 21.77 75.53 21.78Q75.74 21.8 75.93 21.75Q76.2 21.67 76.42 21.43Q76.79 21.03 77.05 20.46Q77.3 19.89 77.48 19.24Q77.66 18.6 77.78 18.15Q78.2 16.86 78.47 15.84Q78.74 14.82 79.01 13.95Q79.25 14.82 79.55 15.92Q79.85 17.01 80.24 18.33Q80.36 18.78 80.54 19.38Q80.72 19.98 80.97 20.52Q81.23 21.06 81.6 21.42Q81.82 21.62 82.07 21.71Q82.27 21.78 82.49 21.78Q82.93 21.78 83.24 21.57Q83.25 21.57 83.26 21.56Q83.31 21.53 83.37 21.49Q83.61 21.3 83.79 21.03Q84.02 20.7 84.18 20.28Q84.35 19.86 84.53 19.44Q85.07 18 85.46 16.8Q85.85 15.6 86.36 14.22Q86.57 13.62 86.9 12.7Q87.06 12.28 87.19 11.86Q87.34 11.35 87.47 10.84Q87.71 9.9 87.78 9.08ZM94.11 8.33Q93.61 8.49 93.14 8.73Q93.04 8.78 92.93 8.84Q91.96 9.36 91.19 10.29Q90.35 11.31 89.93 12.93Q89.72 13.71 89.66 14.5Q89.62 14.96 89.63 15.42Q89.66 16.68 90.09 17.78Q90.34 18.39 90.71 18.92Q90.99 19.33 91.35 19.7Q91.39 19.73 91.43 19.77Q92.24 20.53 93.47 20.85Q94.46 21.12 95.33 21.18Q96.2 21.24 97.16 21.12Q98.3 20.97 99.11 20.48Q99.92 19.98 100.61 19.08Q100.82 19.41 101.07 19.79Q101.16 19.92 101.26 20.04Q101.45 20.27 101.66 20.47Q101.93 20.73 102.25 20.89Q102.32 20.93 102.39 20.96Q102.55 21.02 102.72 21.05Q102.98 21.08 103.25 21.03Q103.76 20.93 104.05 20.62Q104.2 20.46 104.29 20.23Q104.4 19.94 104.44 19.64Q104.48 19.28 104.39 18.9Q104.21 18.18 103.92 17.52Q103.64 16.86 103.33 16.2Q103.01 15.54 102.74 14.88Q102.47 14.22 102.36 13.44Q102.17 12.3 101.75 11.37Q101.33 10.44 100.55 9.66Q99.77 8.91 98.87 8.51Q98.48 8.33 98.08 8.21Q97.55 8.06 96.99 8Q96.79 7.98 96.59 7.97Q95.82 7.93 95.03 8.09Q94.56 8.18 94.11 8.33ZM115.14 12.91Q115.46 13.5 115.34 14.34Q115.27 14.94 114.96 15.35Q114.88 15.45 114.79 15.54Q114.32 15.99 113.66 16.26Q113 16.53 112.24 16.65Q111.48 16.77 110.78 16.8L110.78 14.79Q110.81 13.77 110.79 12.89Q110.78 12 110.78 11.04L111.21 11.04Q111.41 11.04 111.5 11.07Q112.22 11.16 112.95 11.37Q113.69 11.58 114.26 11.96Q114.6 12.18 114.86 12.49Q115.02 12.68 115.14 12.91ZM93.75 12.39Q93.82 12.31 93.89 12.24Q94.31 11.82 94.96 11.6Q95.46 11.42 95.96 11.39Q96.11 11.38 96.26 11.38Q96.67 11.39 97.06 11.5Q97.29 11.57 97.51 11.67Q97.72 11.77 97.9 11.91Q98.22 12.15 98.45 12.51Q98.63 12.81 98.75 13.12Q98.95 13.65 98.96 14.23Q98.99 14.98 98.77 15.66Q98.72 15.84 98.65 16.01Q98.44 16.52 98.1 16.92Q97.88 17.17 97.62 17.38Q97.35 17.59 97.04 17.71Q96.58 17.89 96.05 17.85Q95.67 17.82 95.3 17.74Q94.92 17.65 94.55 17.51Q93.83 17.22 93.53 16.8Q93.2 16.32 93.05 15.69Q92.93 15.21 92.93 14.72Q92.93 14.58 92.94 14.43Q92.98 13.96 93.12 13.53Q93.17 13.38 93.23 13.23Q93.43 12.75 93.75 12.39Z" fill="#FFFFFF" fill-opacity="1.000000" fill-rule="evenodd"/>
</svg>
